<?xml version="1.0" encoding="utf-8"?>
<svg viewBox="139.138 322.47 478.594 160.86" width="478.594" height="160.86" xmlns="http://www.w3.org/2000/svg">
  <path d="M192.61,435.82c-31-.21-53.71-23.08-53.47-53.72a53.74,53.74,0,0,1,54.19-53.38c30.74.26,53.64,23.37,53.42,53.93A53.61,53.61,0,0,1,192.61,435.82ZM163.94,375l-.59.07c1,6.65,1.64,13.36,3,19.93a43.23,43.23,0,0,0,10.09,20.89c11,12.13,28.71,11.19,38.39-2a35.17,35.17,0,0,0,5.91-13.19c2.31-10.18,1.29-20.32-.75-30.4-1.61-7.92-4.55-15.27-10.16-21.29-12.5-13.41-32.64-10.85-41.37,5.22A39.53,39.53,0,0,0,163.94,375Z" style="fill: rgb(199, 169, 76);"/>
  <path d="M512,450.13h17.48v16.42H512v16.78H495.76V466.56H478.2V450.2h17.5c0-3.28.07-6.36-.08-9.43,0-.42-1.1-1-1.77-1.14-15-4.12-24.3-13.8-27.54-28.86-5.5-25.51,13.61-47.92,39.68-46.91,17.37.66,32.13,13.49,35.78,31.08,3.52,17-5.11,34.93-20.44,42.2-2.53,1.2-5.33,1.83-8,2.83-.57.22-1.34.92-1.36,1.43C511.88,444.21,512,447,512,450.13Zm-8.14-26.55c11.36,0,20.76-9.67,20.76-21.36S515.21,381,503.92,381s-20.72,9.6-20.68,21.38S492.51,423.58,503.81,423.58Z" style="fill: rgb(199, 169, 76);"/>
  <path d="M415.79,373.56c2.42-2,4.39-3.84,6.51-5.44A25,25,0,0,1,445.94,364c8.17,2.57,13.16,9.65,13.28,19.16.16,12.69.06,25.38.08,38.07,0,3,.23,3.36,3.21,4.22,1.18.34,2.4.54,3.6.83,2.76.65,3.75,2,3.49,4.85-.1,1.14-.34,2.27-.55,3.54-1.38,0-2.67.1-3.93,0a176.7,176.7,0,0,0-30.86,0c-3.41.29-3.8.08-4.16-2.19-.58-3.65.29-5.52,3.15-6.13,6.37-1.37,5.13-1.89,5.16-6.77.06-9.36.08-18.71,0-28.06a38.82,38.82,0,0,0-.95-8c-.77-3.43-2.92-4.92-6.44-5-8.67-.12-14.64,5.5-15.05,15.08s-.12,19.43-.14,29.15a2.61,2.61,0,0,0,2.2,2.8c.7.18,1.4.37,2.11.52,3.82.81,5.41,3.92,3.68,7.49a2.55,2.55,0,0,1-2,1.07c-2.76,0-5.51-.42-8.26-.41-8.33.06-16.66.3-25,.35-1.25,0-3.15,1.3-3.64-1.29-.78-4.06-.22-6,2.32-6.79,1.64-.53,3.37-.83,5.05-1.23,1.92-.45,2.64-1.59,2.64-3.61q-.07-39.92,0-79.83c0-.51,0-1,0-1.52-.33-4.17-1.71-5.61-5.87-6.12s-5.82-3.07-4.57-7a2,2,0,0,1,2.14-1.65,106.47,106.47,0,0,0,23.74-2.46,9.78,9.78,0,0,1,2.81-.15,3.42,3.42,0,0,1,3.52,3.64c0,2.09-.45,4.17-.49,6.27q-.22,15.75-.35,31.52C415.76,367.32,415.79,370.21,415.79,373.56Z" style="fill: rgb(199, 169, 76);"/>
  <path d="M 303.39 400.517 C 305.111 400.076 306.862 399.765 308.63 399.587 C 311.76 399.467 313.36 400.837 314.63 403.947 C 315.9 407.057 317.16 410.277 318.75 413.267 C 322.6 420.567 328.89 424.187 337.04 424.647 C 341.1 424.877 345.15 424.877 348.97 423.037 C 357.51 418.937 359.22 406.807 352.11 400.557 C 347.19 396.237 341.11 394.297 335.16 391.917 C 330.62 390.23 326.17 388.307 321.83 386.157 C 309.83 379.777 304.49 369.617 306.14 356.157 C 307.72 343.287 315.37 335.227 327.35 331.157 C 336.79 327.927 346.35 328.697 355.88 330.987 C 360.22 332.136 364.496 333.514 368.69 335.117 C 369.522 335.523 370.12 336.291 370.31 337.197 C 371.26 343.867 372.03 350.557 372.94 357.197 C 373.09 358.327 372.94 358.957 371.76 359.267 C 367.04 360.537 363.59 359.767 361.76 354.927 C 356.04 339.927 341.81 338.987 332.2 342.077 C 325.58 344.217 322.48 349.967 324.38 356.457 C 325.022 358.665 326.354 360.61 328.18 362.007 C 331.969 364.528 335.959 366.732 340.11 368.597 C 347.31 371.967 354.89 374.597 361.86 378.377 C 369.45 382.487 374.78 388.867 376.43 397.697 C 379.95 416.517 368.01 432.947 348.94 435.517 C 335.273 437.353 321.366 435.229 308.87 429.397 C 307.663 428.948 306.865 427.795 306.87 426.507 C 305.84 417.987 304.62 409.537 303.39 400.517 Z" style="fill: rgb(199, 169, 76);"/>
  <path d="M589.18,425c-7.4,7.58-16.07,11.94-27,10.66-7.53-.88-12.91-6.12-14-13.84a43.88,43.88,0,0,1-.43-6.06c0-12.4,0-24.79,0-37.19v-2.69h-9.1c0-2.45-.15-4.61,0-6.74A3.13,3.13,0,0,1,542,366c6-.17,9.81-3.35,12.24-8.58.46-1,1-1.92,1.55-2.87,2.77-5,6.9-7,12.76-5.64V364.4c1,.05,1.88.14,2.72.14,4.42,0,8.84.09,13.27,0,1.78,0,2.32.61,2.13,2.27-.16,1.37-.13,2.76-.27,4.12-.34,3.36-1.84,4.78-5.2,4.83-3.63,0-7.25,0-10.88,0-1.13,0-1.73.28-1.71,1.58.13,13.77.14,27.54.39,41.31.09,4.59.9,6.15,6.93,4.39a16.24,16.24,0,0,0,3.52-1.68C584.46,418.39,587,419.31,589.18,425Z" style="fill: rgb(199, 169, 76);"/>
  <path d="M294.15,389.28c.91,3.94,1.36,7.77.1,11.62a4.6,4.6,0,0,1-4.62,3.56c-10.22,0-20.43,0-30.65,0-.56,0-1.58-.68-1.62-1.12a61.24,61.24,0,0,1-.45-9.46,4.66,4.66,0,0,1,5-4.53C272.59,389.22,283.3,389.28,294.15,389.28Z" style="fill: rgb(199, 169, 76);"/>
  <path d="M606.24,322.47c6.73,0,11.45,4.61,11.49,11.24a11.48,11.48,0,1,1-11.49-11.24Zm-9.47,11.42c0,5.86,3.91,9.75,9.67,9.69,5.53-.06,9.35-3.95,9.37-9.55s-4-9.84-9.63-9.84S596.75,328.15,596.77,333.89Z" style="fill: rgb(199, 169, 76);"/>
  <path d="M606.53,340.43H601c2.18-2.33,2.14-11.58-.17-13.41,2.21,0,4.21-.13,6.17,0s3.93.42,4.48,2.7-1,3.41-3.07,4.52l4.22,5.72c-.72,1.26-1.83,1-2.76,0s-1.88-2.55-2.83-3.82c-.45-.59-1-1.13-1.53-1.78C604.29,336.83,604.61,338.79,606.53,340.43Zm-1.59-6.5c1.54-.8,2.81-1.15,3.58-2a2.58,2.58,0,0,0-.07-2.54c-.8-.78-2.09-1-3.51-1.67Z" style="fill: rgb(199, 169, 76);"/>
</svg>