<?xml version="1.0" encoding="utf-8"?>
<svg viewBox="0 0 144.14 51.22" width="144.14" height="51.22" xmlns="http://www.w3.org/2000/svg">
  <defs>
    <style>.efe9b25e-47b2-48d2-82c2-33438baaa9ab{fill:none;}.b828838e-4d1c-420b-9a1a-a5901eef9d17,.f1f4742b-2c0b-455e-8bba-26fe844cf3f4{fill:#1c3f84;}.b9e7e79c-8305-48dc-b1e0-de9cc01dbe78{opacity:0.9;}.ac821732-6ef2-4764-9017-be01c881dd30{clip-path:url(#b7a02de7-6f1e-43b3-98d4-0930c6d5fcaf);}.f1f4742b-2c0b-455e-8bba-26fe844cf3f4{fill-rule:evenodd;}.bf39f16f-0293-497a-8fb8-4be897fcb07a{opacity:0.4;}.e6af0b47-bc3b-4525-b73d-eecc54ff5ce2{fill:#1d1d1b;}</style>
  </defs>
  <path class="b828838e-4d1c-420b-9a1a-a5901eef9d17" d="M113.4,11.43c-.43,1-.87,1.92-1.3,2.87-.77,1.74-1.51,3.5-2.31,5.22-.26.57-.14.82.35,1.18a16.48,16.48,0,0,1,7.26,14.71A16.72,16.72,0,1,1,98,18a18.58,18.58,0,0,1,7.31.38l3.87-8.77L109,9.43l-7.44,4.38-2.36-4L115.9,0c1.34,6.38,2.65,12.63,4,18.93l-4.5,1c-.6-2.83-1.19-5.63-1.79-8.44Zm-.58,23.07a12.13,12.13,0,1,0-12.13,12.12A12.15,12.15,0,0,0,112.82,34.5Z" style="fill: rgb(199, 169, 76);"/>
  <path class="b828838e-4d1c-420b-9a1a-a5901eef9d17" d="M54.58,27.11H48a5.33,5.33,0,0,1-.17-.66,4.33,4.33,0,0,0-3.65-3.88,8.59,8.59,0,0,0-5.37.26,3.32,3.32,0,0,0-2,2.06,2.62,2.62,0,0,0,1.69,3.63c2.17.77,4.43,1.31,6.63,2A44.63,44.63,0,0,1,51,32.45c6.63,3.12,5.85,11.79,1.15,15.2a15,15,0,0,1-8,2.64A16.92,16.92,0,0,1,33.49,48a9.82,9.82,0,0,1-4.68-9h6.63c0,.06.09.1.09.15.33,4.06,3,5.37,6.07,5.67a9.9,9.9,0,0,0,5.1-.7A3.4,3.4,0,0,0,49,41.06,3,3,0,0,0,47,38c-2.17-.83-4.44-1.43-6.66-2.13-1.65-.52-3.36-1-4.94-1.59-3.16-1.25-5.28-3.42-5.5-7a8.71,8.71,0,0,1,4.7-8.63,14.88,14.88,0,0,1,8.35-1.77,15.6,15.6,0,0,1,7,1.83,9,9,0,0,1,4.72,7.6,4.51,4.51,0,0,1,0,.52A1.59,1.59,0,0,1,54.58,27.11Z" style="fill: rgb(199, 169, 76);"/>
  <path class="b828838e-4d1c-420b-9a1a-a5901eef9d17" d="M6.92,50.62H0V18.81a6.36,6.36,0,0,1,.75-.08c5,0,10-.14,14.93.08,7.1.29,10.39,5.58,9.67,11.69-.64,5.41-4.58,8.46-10,8.66-2.34.1-4.68,0-7,0-1.53,0-1.41-.22-1.44,1.37v8.92ZM6.92,29v4.15c0,.48.13.71.63.69,2.29,0,4.57,0,6.85-.15A4.29,4.29,0,0,0,18,31.73a4.74,4.74,0,0,0-3.62-7.44c-2.24-.19-4.51-.12-6.76-.18-.53,0-.7.19-.69.7C6.92,26.19,6.92,27.58,6.92,29Z" style="fill: rgb(199, 169, 76);"/>
  <path class="b828838e-4d1c-420b-9a1a-a5901eef9d17" d="M65.62,50.63H59.35V18.78h6.26V30.57l.19.09c.17-.2.34-.4.48-.6,3.11-4,8.65-3.71,11.62-1.85a6.67,6.67,0,0,1,3,5.79c.17,4.73.14,9.47.19,14.2v2.4H74.7v-13a14,14,0,0,0-.16-2.15c-.43-2.71-2.23-4-5-3.49-2.2.39-3.39,1.69-3.75,4.15a17.52,17.52,0,0,0-.18,2.5v11Z" style="fill: rgb(199, 169, 76);"/>
  <path class="b828838e-4d1c-420b-9a1a-a5901eef9d17" d="M134.76,45.43v4.76a18.64,18.64,0,0,1-7.52-.28,4.3,4.3,0,0,1-3.36-4.4c0-4.36,0-8.72,0-13.09V31.21H120V27c1,0,1.95,0,2.92,0,.72,0,1-.21,1-.93,0-2,0-3.92,0-5.95h6.23c0,.29,0,.59,0,.9,0,1.64,0,3.29,0,4.94,0,.76.17,1.1,1,1.05a22,22,0,0,1,3,0c.22,0,.62.28.62.44.06,1.21,0,2.4,0,3.7-1.35,0-2.59,0-3.83,0-.71,0-.88.23-.87.9V42.63a7,7,0,0,0,.14,1.38,1.42,1.42,0,0,0,1.26,1.26C132.58,45.37,133.64,45.4,134.76,45.43Z" style="fill: rgb(199, 169, 76);"/>
  <path class="b828838e-4d1c-420b-9a1a-a5901eef9d17" d="M138.71,18.84a5.4,5.4,0,1,1,5.43-5.37v.12A5.41,5.41,0,0,1,138.71,18.84Zm0-1a4.37,4.37,0,0,0,4.39-4.34v-.11a4.41,4.41,0,1,0-4.48,4.45Z" style="fill: rgb(199, 169, 76);"/>
  <path class="b828838e-4d1c-420b-9a1a-a5901eef9d17" d="M137.66,14.1v2.21h-1.35V10.6c1.07,0,2.12-.06,3.16,0A1.44,1.44,0,0,1,140.9,12a1.54,1.54,0,0,1-1.1,1.67l-.37.15c.95.59,1.18,1.63,1.82,2.53-.57,0-1,0-1.48,0a.63.63,0,0,1-.36-.28c-.28-.49-.52-1-.85-1.48a3.83,3.83,0,0,0-.73-.6Zm0-2.57c0,.24,0,.39,0,.55,0,1,.19,1.18,1.23.89a.69.69,0,0,0,.57-.7.64.64,0,0,0-.6-.66,8.31,8.31,0,0,0-1.17-.09Z" style="fill: rgb(199, 169, 76);"/>
</svg>